<?xml version="1.0" encoding="iso-8859-1"?>
<!-- Uploaded to: SVG Repo, www.svgrepo.com, Generator: SVG Repo Mixer Tools -->
<svg height="800px" width="800px" version="1.1" id="Layer_1" xmlns="http://www.w3.org/2000/svg" xmlns:xlink="http://www.w3.org/1999/xlink" 
	 viewBox="0 0 501.927 501.927" xml:space="preserve">
<g>
	<path style="fill:#535C61;" d="M474.071,305.25c-79.045,9.185-197.524,6.877-197.524,6.877
		c-42.925-2.864-74.505-7.964-106.303-53.18c-20.041-28.498-39.186-74.25-35.323-108.326c0,0,144.867,1.747,266.304-8.243
		C347.389,41.296,306.668,28.318,209.617,35.364C124.234,41.563,53.64,95.22,21.753,168.653
		C3.51,210.665,6.65,258.911,29.203,298.776l71.733,126.794c36.797,17.637,84.693,28.771,144.901,35.94
		C510.54,493.025,512.344,407.646,474.071,305.25z"/>
	<path style="fill:#53A29D;" d="M401.224,142.379c-121.436,9.99-266.304,8.243-266.304,8.243
		c-3.863,34.076,15.283,79.828,35.323,108.326c31.797,45.216,63.377,50.316,106.303,53.18c0,0,118.479,2.308,197.524-6.877
		c-7.852-21.009-17.39-42.733-26.692-64.311C430.27,201.249,415.299,168.806,401.224,142.379z"/>
	<circle style="fill:#535C61;" cx="204.525" cy="205.237" r="20.54"/>
	<g>
		<path d="M501.544,373.224c-1.482-19.679-7.235-42.391-18.106-71.475c-7.063-18.899-15.551-38.547-23.759-57.548l-3.117-7.222
			c-18.471-42.848-33.25-74.402-46.511-99.302c-28.292-53.122-53.365-82.502-83.835-98.239
			c-31.9-16.476-68.542-17.592-117.323-14.048C122.38,31.672,47.158,85.041,12.581,164.67C-6.653,208.964-3.693,260.937,20.5,303.7
			l71.733,126.794c1.007,1.78,2.537,3.21,4.381,4.094c36.409,17.451,83.45,29.162,148.041,36.853
			c37.784,4.499,70.796,6.744,99.564,6.743c23.113,0,43.488-1.45,61.378-4.345c38.127-6.171,64.258-18.843,79.887-38.742
			C498.207,418.899,503.459,398.66,501.544,373.224z M441.319,252.132c6.357,14.716,12.884,29.824,18.725,44.545
			c-75.211,7.245-177.489,5.557-183.073,5.456c-41.884-2.806-69.448-7.56-98.547-48.937c-17.463-24.833-33.644-62.971-33.992-92.504
			c33.745,0.172,149.911,0.097,251.017-7.818v0.002c12.224,23.492,25.913,52.969,42.747,92.022L441.319,252.132z M469.755,422.743
			c-12.211,15.547-34.872,26.096-67.354,31.353c-37.758,6.109-90.037,5.265-155.382-2.515
			c-60.656-7.223-104.938-17.954-138.945-33.701L37.907,293.852c-21.12-37.332-23.729-82.646-6.981-121.216
			c31.603-72.78,100.35-121.558,179.415-127.298c45.313-3.289,78.966-2.452,106.696,11.87c24.055,12.424,44.795,35.609,67.96,76.4
			c-116.195,8.506-248.573,7.029-249.956,7.014c-5.099-0.064-9.479,3.773-10.057,8.873c-4.213,37.167,15.587,84.642,37.08,115.205
			c34.117,48.514,68.694,54.394,113.816,57.404c0.157,0.011,0.314,0.018,0.471,0.021c1.153,0.023,112.412,2.074,191.011-6.079
			C485.895,368.236,486.583,401.319,469.755,422.743z"/>
		<path d="M451.396,348.933c-1.245-5.381-6.617-8.736-11.997-7.487c-5.381,1.245-8.733,6.617-7.487,11.997l7.693,33.236
			c1.07,4.622,5.184,7.747,9.733,7.747c0.747,0,1.505-0.084,2.264-0.26c5.381-1.245,8.733-6.617,7.487-11.997L451.396,348.933z"/>
		<path d="M411.475,351.832c-1.246-5.38-6.614-8.732-11.998-7.487c-5.38,1.245-8.732,6.617-7.487,11.997l7.694,33.236
			c1.07,4.622,5.184,7.747,9.733,7.747c0.747,0,1.505-0.084,2.264-0.26c5.38-1.245,8.732-6.617,7.487-11.997L411.475,351.832z"/>
		<path d="M109.7,336.836c-2.644-4.849-8.718-6.635-13.567-3.991c-4.849,2.645-6.635,8.72-3.99,13.567l28.001,51.336
			c1.815,3.328,5.246,5.214,8.788,5.214c1.618,0,3.259-0.394,4.78-1.223c4.849-2.645,6.635-8.72,3.99-13.567L109.7,336.836z"/>
		<path d="M89.703,300.176l-12.002-22.004c-2.644-4.849-8.719-6.634-13.567-3.991c-4.849,2.645-6.635,8.72-3.99,13.567
			l12.002,22.004c1.815,3.328,5.246,5.214,8.788,5.214c1.618,0,3.259-0.394,4.78-1.223
			C90.562,311.099,92.348,305.023,89.703,300.176z"/>
		<path d="M204.473,174.85c-16.845,0-30.5,13.655-30.5,30.5s13.655,30.5,30.5,30.5s30.5-13.655,30.5-30.5
			C234.973,188.506,221.318,174.85,204.473,174.85z M204.473,215.85c-5.799,0-10.5-4.701-10.5-10.5s4.701-10.5,10.5-10.5
			s10.5,4.701,10.5,10.5S210.272,215.85,204.473,215.85z"/>
	</g>
</g>
</svg>