<?xml version="1.0" encoding="iso-8859-1"?>
<!-- Uploaded to: SVG Repo, www.svgrepo.com, Generator: SVG Repo Mixer Tools -->
<svg height="800px" width="800px" version="1.1" id="Layer_1" xmlns="http://www.w3.org/2000/svg" xmlns:xlink="http://www.w3.org/1999/xlink" 
	 viewBox="0 0 512 512" xml:space="preserve">
<g>
	<path style="fill:#ECBA16;" d="M256,390.508c9.702,0,18.571,3.298,25.8,8.678h52.302l-29.184-20.506
		c-9.095-9.095-14.206-21.426-14.206-34.287V209.677c-10.639,4.651-22.363,7.272-34.712,7.272s-24.073-2.621-34.712-7.272v134.717
		c0,12.861-5.111,25.192-14.206,34.287l-29.184,20.506H230.2C237.429,393.806,246.298,390.508,256,390.508"/>
	<g>
		<path style="fill:#EDDE64;" d="M169.22,8.678v121.492c0,47.928,38.851,86.78,86.78,86.78s86.78-38.851,86.78-86.78V8.678H169.22z"
			/>
		<path style="fill:#EDDE64;" d="M308.068,347.119H203.932c-4.799,0-8.678-3.888-8.678-8.678c0-4.79,3.879-8.678,8.678-8.678
			h104.136c4.799,0,8.678,3.888,8.678,8.678C316.746,343.231,312.867,347.119,308.068,347.119"/>
		<path style="fill:#EDDE64;" d="M308.068,303.729H203.932c-4.799,0-8.678-3.888-8.678-8.678c0-4.79,3.879-8.678,8.678-8.678
			h104.136c4.799,0,8.678,3.888,8.678,8.678C316.746,299.841,312.867,303.729,308.068,303.729"/>
		<path style="fill:#EDDE64;" d="M308.068,260.339H203.932c-4.799,0-8.678-3.888-8.678-8.678s3.879-8.678,8.678-8.678h104.136
			c4.799,0,8.678,3.888,8.678,8.678S312.867,260.339,308.068,260.339"/>
	</g>
	<g>
		<path style="fill:#ECBA16;" d="M256,52.068l17.104,34.712h34.964l-26.034,35.024l8.183,34.399L256,138.847l-34.217,17.356
			l8.183-34.399L203.932,86.78h34.964L256,52.068z"/>
		<path style="fill:#ECBA16;" d="M108.475,512h295.051v-34.712H108.475V512z"/>
		<path style="fill:#ECBA16;" d="M342.78,130.169L342.78,130.169V43.39h69.424v17.356
			C412.203,99.085,381.119,130.169,342.78,130.169"/>
		<path style="fill:#ECBA16;" d="M169.22,130.169L169.22,130.169c-38.339,0-69.424-31.084-69.424-69.424V43.39h69.424V130.169z"/>
	</g>
	<path style="fill:#B58A0F;" d="M299.39,433.898c0,23.96-19.43,43.39-43.39,43.39s-43.39-19.43-43.39-43.39
		c0-23.96,19.43-43.39,43.39-43.39S299.39,409.938,299.39,433.898"/>
	<g>
		<path style="fill:#EDDE64;" d="M212.61,433.898c0-14.258,6.977-26.806,17.59-34.712h-60.902
			c-14.423,0-26.112,11.689-26.112,26.112v51.99H256C232.04,477.288,212.61,457.858,212.61,433.898"/>
		<path style="fill:#EDDE64;" d="M342.703,399.186h-60.911c10.622,7.906,17.599,20.454,17.599,34.712
			c0,23.96-19.43,43.39-43.39,43.39h112.814v-51.99C368.815,410.876,357.126,399.186,342.703,399.186"/>
	</g>
	<path style="fill:#ECBA16;" d="M368.814,17.356H143.186c-4.799,0-8.678-3.888-8.678-8.678S138.388,0,143.186,0h225.627
		c4.799,0,8.678,3.888,8.678,8.678S373.612,17.356,368.814,17.356"/>
</g>
</svg>