<?xml version="1.0" encoding="iso-8859-1"?>
<!-- Uploaded to: SVG Repo, www.svgrepo.com, Generator: SVG Repo Mixer Tools -->
<svg height="800px" width="800px" version="1.1" id="Layer_1" xmlns="http://www.w3.org/2000/svg" xmlns:xlink="http://www.w3.org/1999/xlink" 
	 viewBox="0 0 512 512" xml:space="preserve">
<path style="fill:#E2E2E2;" d="M512,44.522v105.739v116.87V372.87c0,6.147-4.983,11.13-11.13,11.13H395.13h-116.87h-116.87H8.904
	V267.13v-116.87V33.391h152.487h116.87h116.87H500.87C507.017,33.391,512,38.374,512,44.522z"/>
<path style="fill:#002E35;" d="M395.13,150.261h-116.87V33.391h116.87V150.261z M33.391,33.391v116.87h128V33.391H33.391z
	 M395.13,150.261v116.87H512v-116.87H395.13z M161.391,150.261v116.87h116.87v-116.87H161.391z M278.261,384h116.87V267.13h-116.87
	V384z M33.391,384h128V267.13h-128V384z"/>
<path style="fill:#BF4D00;" d="M22.261,512L22.261,512C9.966,512,0,502.034,0,489.739V22.261C0,9.966,9.966,0,22.261,0l0,0
	c12.295,0,22.261,9.966,22.261,22.261v467.478C44.522,502.034,34.556,512,22.261,512z"/>
<path style="fill:#8C1A00;" d="M33.391,508.998C30.115,510.896,26.32,512,22.261,512C9.966,512,0,502.034,0,489.739V22.261
	C0,9.966,9.966,0,22.261,0c4.059,0,7.854,1.104,11.13,3.002c-6.647,3.851-11.13,11.025-11.13,19.259v467.478
	C22.261,497.973,26.744,505.147,33.391,508.998z"/>
</svg>