<?xml version="1.0" encoding="iso-8859-1"?>
<!-- Uploaded to: SVG Repo, www.svgrepo.com, Generator: SVG Repo Mixer Tools -->
<svg height="800px" width="800px" version="1.1" id="Capa_1" xmlns="http://www.w3.org/2000/svg" xmlns:xlink="http://www.w3.org/1999/xlink" 
	 viewBox="0 0 58 58" xml:space="preserve">
<path style="fill:#546A79;" d="M55.317,58H2.683C1.201,58,0,56.799,0,55.317V2.683C0,1.201,1.201,0,2.683,0h52.634
	C56.799,0,58,1.201,58,2.683v52.634C58,56.799,56.799,58,55.317,58z"/>
<path style="fill:#48A0DC;" d="M38.806,22H19.194c-1.266,0-2.346-0.915-2.554-2.164L14.503,7.015C14.239,5.437,15.457,4,17.057,4
	h23.886c1.6,0,2.817,1.437,2.554,3.015l-2.137,12.821C41.153,21.085,40.072,22,38.806,22z"/>
<g>
	<path style="fill:#87CDF4;" d="M20,19h8V7h-8V19z M22,17v-3h4v3H22z M26,9v3h-4V9H26z"/>
	<path style="fill:#87CDF4;" d="M30,7v12h8V7H30z M36,9v3h-4V9H36z M32,17v-3h4v3H32z"/>
</g>
<g>
	<path style="fill:#8697CB;" d="M20,49H8c-0.553,0-1,0.447-1,1s0.447,1,1,1h12c0.553,0,1-0.447,1-1S20.553,49,20,49z"/>
	<path style="fill:#8697CB;" d="M8,47h11c0.553,0,1-0.447,1-1s-0.447-1-1-1H8c-0.553,0-1,0.447-1,1S7.447,47,8,47z"/>
	<path style="fill:#8697CB;" d="M8,43h9c0.553,0,1-0.447,1-1s-0.447-1-1-1H8c-0.553,0-1,0.447-1,1S7.447,43,8,43z"/>
	<path style="fill:#8697CB;" d="M8,39h9c0.553,0,1-0.447,1-1s-0.447-1-1-1H8c-0.553,0-1,0.447-1,1S7.447,39,8,39z"/>
	<path style="fill:#8697CB;" d="M8,35h11c0.553,0,1-0.447,1-1s-0.447-1-1-1H8c-0.553,0-1,0.447-1,1S7.447,35,8,35z"/>
	<path style="fill:#8697CB;" d="M21,29H8c-0.553,0-1,0.447-1,1s0.447,1,1,1h13c0.553,0,1-0.447,1-1S21.553,29,21,29z"/>
	<path style="fill:#8697CB;" d="M50,49H38c-0.553,0-1,0.447-1,1s0.447,1,1,1h12c0.553,0,1-0.447,1-1S50.553,49,50,49z"/>
	<path style="fill:#8697CB;" d="M50,45H39c-0.553,0-1,0.447-1,1s0.447,1,1,1h11c0.553,0,1-0.447,1-1S50.553,45,50,45z"/>
	<path style="fill:#8697CB;" d="M50,41h-9c-0.553,0-1,0.447-1,1s0.447,1,1,1h9c0.553,0,1-0.447,1-1S50.553,41,50,41z"/>
	<path style="fill:#8697CB;" d="M50,37h-9c-0.553,0-1,0.447-1,1s0.447,1,1,1h9c0.553,0,1-0.447,1-1S50.553,37,50,37z"/>
	<path style="fill:#8697CB;" d="M50,33H39c-0.553,0-1,0.447-1,1s0.447,1,1,1h11c0.553,0,1-0.447,1-1S50.553,33,50,33z"/>
	<path style="fill:#8697CB;" d="M50,31c0.553,0,1-0.447,1-1s-0.447-1-1-1H37c-0.553,0-1,0.447-1,1s0.447,1,1,1H50z"/>
</g>
</svg>