<svg xmlns="http://www.w3.org/2000/svg" xmlns:xlink="http://www.w3.org/1999/xlink" version="1.1" style="enable-background:new 0 0 496 496;" xml:space="preserve" width="496" height="496"><rect id="backgroundrect" width="100%" height="100%" x="0" y="0" fill="none" stroke="none"/>






















<g class="currentLayer" style=""><title>Layer 1</title>
	<path style="" d="M0,304v65.6C0,396.8,21.6,416,48,416h400c26.4,0,48-19.2,48-46.4V304H0z" id="svg_2" class="" fill="#41e841" fill-opacity="1"/>
	<path style="fill:#DB2727;" d="M448,80H48C21.6,80,0,99.2,0,126.4V192h496v-65.6C496,99.2,474.4,80,448,80z" id="svg_3" class=""/>
<rect y="192" style="fill:#E4EFEE;" width="496" height="112" id="svg_4" class=""/>
	<path style="" d="M446.4,416c26.4,0,49.6-19.2,49.6-46.4V304H315.2L446.4,416z" id="svg_6" class="" fill="#04b804" fill-opacity="1"/>
	<path style="fill:#C61010;" d="M448,80H48l132.8,112H496v-65.6C496,99.2,474.4,80,448,80z" id="svg_7" class=""/>
<polygon style="fill:#CFE5E2;" points="316,304 496,304 496,192 180,192 " id="svg_8" class=""/><path style="fill:#AF0202;" d="M448,80H48l370.4,112H496v-65.6C496,99.2,474.4,80,448,80z" id="svg_9" class=""/><polygon style="fill:#BAD3CF;" points="496,214.4 496,192 414.4,192 " id="svg_10"/><path style="" d="M496,368.8c0,28.8-21.6,47.2-48,47.2H48c-26.4,0-48-20.8-48-48" id="svg_11" class="" fill="#009900" fill-opacity="1"/><g id="svg_12">
</g><g id="svg_13">
</g><g id="svg_14">
</g><g id="svg_15">
</g><g id="svg_16">
</g><g id="svg_17">
</g><g id="svg_18">
</g><g id="svg_19">
</g><g id="svg_20">
</g><g id="svg_21">
</g><g id="svg_22">
</g><g id="svg_23">
</g><g id="svg_24">
</g><g id="svg_25">
</g><g id="svg_26">
</g></g></svg>